<!DOCTYPE svg PUBLIC "-//W3C//DTD SVG 1.1//EN" "http://www.w3.org/Graphics/SVG/1.1/DTD/svg11.dtd" >
<svg xmlns="http://www.w3.org/2000/svg" xmlns:xlink="http://www.w3.org/1999/xlink" version="1.1">
<metadata>
Created by FontForge 20150318 at Wed Apr 15 23:43:17 2015
 By uniteet7
Copyright (c) 2013 by Richard Alexander Hall.
</metadata>
<defs>
<font id="Earthbound" horiz-adv-x="542" >
  <font-face 
    font-family="Earthbound"
    font-weight="400"
    font-stretch="normal"
    units-per-em="1000"
    panose-1="2 11 5 4 3 6 2 3 2 4"
    ascent="800"
    descent="-200"
    x-height="520"
    cap-height="693"
    bbox="-79 -190.001 987 783"
    underline-thickness="79"
    underline-position="-84"
    stemh="82"
    stemv="93"
    unicode-range="U+0009-2022"
  />
<missing-glyph horiz-adv-x="231" 
 />
    <glyph glyph-name=".notdef" horiz-adv-x="231" 
 />
    <glyph glyph-name="nonmarkingreturn" unicode="&#x9;" horiz-adv-x="231" 
 />
    <glyph glyph-name="nonmarkingreturn" unicode="&#xd;" horiz-adv-x="231" 
 />
    <glyph glyph-name="space" unicode=" " horiz-adv-x="231" 
 />
    <glyph glyph-name="exclam" unicode="!" horiz-adv-x="254" 
d="M177 505v-71.001c0 -25.333 -0.333008 -51.666 -1 -78.999s-2 -54.833 -4 -82.5c-2.00098 -27.667 -4.66797 -54.834 -8.00098 -81.501h-74c-3.33301 26.667 -6 53.834 -8 81.501s-3.33301 55.167 -3.99902 82.5c-0.666992 27.334 -1 53.667 -1 79v71v188h100v-188z
M179 -0.000976562h-103v108h103v-108z" />
    <glyph glyph-name="quotedbl" unicode="&#x22;" horiz-adv-x="396" 
d="M158 761v-50c0 -14 0.166992 -27.5 0.5 -40.5s0.333008 -26.5 0 -40.5c-0.333008 -14.0039 -1.33301 -29.1709 -3 -45.5c-1.66699 -16.333 -4.16699 -34.833 -7.5 -55.5h-77c-3.33301 20.667 -5.83301 39.167 -7.5 55.5s-2.66699 31.5 -3 45.5s-0.333008 27.5 0 40.5
s0.5 26.5 0.5 40.5v50h97zM335 762l-0.000976562 -50c-0.000976562 -14 0.166016 -27.5 0.500977 -40.5c0.333008 -13 0.333008 -26.5 0 -40.5c-0.333008 -14.001 -1.33301 -29.168 -3 -45.5c-1.66699 -16.333 -4.16699 -34.833 -7.5 -55.5h-77
c-3.33301 20.667 -5.83301 39.167 -7.5 55.5s-2.66699 31.5 -3 45.5s-0.333008 27.5 0 40.5s0.5 26.5 0.5 40.5v49z" />
    <glyph glyph-name="numbersign" unicode="#" horiz-adv-x="645" 
d="M273 510h165l51 183l80 -14l-47 -169h65v-74h-86l-50 -179h136v-74h-156l-51 -183l-82 5l49 178h-159l-47 -183l-83 5l46 178h-66v74h85l46 179h-131v74h151l47 183l81 -12zM207 257h160l51 179h-164z" />
    <glyph glyph-name="dollar" unicode="$" 
d="M313 749l0.000976562 -84.9971c25.333 -1.33203 51.833 -5.49902 79.5 -12.5c27.667 -7 53.5 -19.833 77.5 -38.5l-48 -58c-16 12 -33.5 20.5 -52.5 25.5s-37.833 8.16699 -56.499 9.5v-222c23.333 -5.33301 45.833 -11.5 67.5 -18.5s41 -16.5 58 -28.5
s30.5 -27.5 40.5 -46.5s15 -42.5 15 -70.5c-0.000976562 -54 -16.334 -97.833 -49 -131.5c-32.667 -33.667 -76.667 -53.834 -132 -60.501v-93h-78v92c-36 3.33301 -69.5 11.666 -100.5 24.999s-60.167 32.666 -87.5 57.999l54 54
c19.333 -18.667 40.166 -32.834 62.499 -42.501s46.166 -16.167 71.499 -19.5v223c-24 5.33301 -46.833 11.833 -68.5 19.5s-41 18 -58 31s-30.5 29.333 -40.5 49s-15 44.5 -15 74.5c0 26.668 5.16699 50.335 15.5 71.001c10.333 20.668 24 38.335 41 53
c17 14.6709 36.5 26.3379 58.5 35.001c22 8.66992 44.333 15.0029 67 18.999v88h78zM416.001 204.003c0 13.333 -2.66699 24.832 -8 34.499s-12.833 17.834 -22.5 24.501s-20.667 12.334 -33 17.001s-25.5 8.66699 -39.5 12v-205c32 6 57.167 19.167 75.5 39.5
c18.334 20.333 27.501 46.166 27.5 77.499zM131.001 483.002c0 -14.667 2.66895 -27.167 8.00195 -37.5s12.833 -19.333 22.5 -27c9.66699 -7.66895 20.834 -14.002 33.5 -19c12.667 -5 26 -9.5 40 -13.5v200c-13.333 -3.33301 -26.333 -7.83301 -39 -13.5
s-23.834 -12.667 -33.501 -21c-9.66699 -8.33594 -17.334 -18.1689 -23.001 -29.5c-5.66699 -11.333 -8.5 -24.333 -8.5 -39z" />
    <glyph glyph-name="percent" unicode="%" horiz-adv-x="836" 
d="M41 524c0 59.333 14.332 104.332 42.999 134.999c15.333 16 32.5 27 51.5 33s40.167 9 63.5 9s44.5 -3 63.5 -9s36.167 -17 51.5 -33c28.667 -30.667 43 -75.667 43 -135c-0.000976562 -29.333 -3.33398 -55.166 -9.99902 -77.499
c-6.66699 -22.333 -17.667 -41.5 -33 -57.5s-32.5 -27 -51.5 -33s-40.167 -9 -63.5 -9s-44.5 3 -63.5 9s-36.167 17 -51.5 33s-26.333 35.167 -33 57.5c-6.66699 22.334 -10 48.167 -10 77.5zM276.999 523.999c-0.00390625 18 -1.33789 34 -4.00098 48
c-2.66699 14 -7.66699 26 -15 36s-15.833 16.5 -25.5 19.5s-21.167 4.5 -34.5 4.5s-24.833 -1.5 -34.5 -4.5s-18.167 -9.5 -25.5 -19.5c-7.33398 -10 -12.334 -22 -15 -36c-2.66699 -14 -4 -30 -3.99902 -48c0 -18 1.33301 -34 4 -48s7.66699 -26 15 -36
s15.833 -16.5 25.5 -19.5s21.167 -4.5 34.5 -4.5s24.833 1.5 34.5 4.5s18.167 9.5 25.5 19.5s12.333 22 15 36s4 30 4 48zM480.998 168.999c0 59.333 14.333 104.331 43 134.998c15.333 16 32.5 27 51.5 33s40.167 9 63.5 9s44.5 -3 63.5 -9s36.167 -17 51.5 -33
s26.333 -35.167 33 -57.5c6.67285 -22.333 10.0059 -48.166 10 -77.499c0 -29.333 -3.33301 -55.166 -10 -77.499s-17.667 -41.5 -33 -57.5c-15.335 -16 -32.502 -27 -51.5 -33c-19.001 -6 -40.168 -9 -63.5 -9c-23.335 0 -44.502 3 -63.501 9
c-19.001 6 -36.168 17 -51.5 33c-28.666 30.667 -42.999 75.667 -42.999 135zM716.998 168.997c0 18 -1.33301 34 -4 48s-7.66699 26 -15 36s-15.833 16.5 -25.5 19.5s-21.167 4.5 -34.5 4.5s-24.833 -1.5 -34.5 -4.5s-18.167 -9.5 -25.5 -19.5s-12.333 -22 -15 -36
s-4 -30 -4 -48c0.0166016 -18 1.34961 -34 4 -48c2.66699 -14 7.66699 -26 15 -36s15.833 -16.5 25.5 -19.5s21.167 -4.5 34.5 -4.5s24.833 1.5 34.5 4.5s18.167 9.5 25.5 19.5s12.333 22 15 36c2.69434 14 4.02734 30 4 48zM662.998 679.997l-411 -681l-81 15l410 680z" />
    <glyph glyph-name="ampersand" unicode="&#x26;" horiz-adv-x="644" 
d="M522 -4c-22 26.667 -44.332 51.9961 -66.998 75.9961c-28 -21.333 -58.667 -40.166 -92 -56.499s-68.333 -24.833 -105 -25.5c-36.667 2 -68.834 9.33301 -96.501 22s-50.834 29 -69.501 49s-32.834 43.167 -42.501 69.5s-14.5 54.166 -14.5 83.499
c0 20 3.66699 38.667 11 56s17.166 33.333 29.499 48s26.5 28.167 42.5 40.5c16 12.334 32.667 23.501 50 33.501l-1 2c-8.66699 10.667 -17 22.834 -25 36.501s-14.833 28.167 -20.5 43.5s-9.83398 31.333 -12.501 48s-3 33.334 -1 50c3.33301 18.667 11 36.667 23 54
s26.833 32.333 44.5 45c17.667 12.6699 37.667 22.3369 60 29c22.333 6.68066 45.5 9.34766 69.5 8.00098h-1c46 -2 83.333 -14 112 -36c28.667 -22.001 45.667 -54.668 51 -98.001c2.66699 -22.667 0.333984 -43.667 -6.99902 -63s-18.166 -37.166 -32.499 -53.499
s-31.833 -31.833 -52.5 -46.5s-42.667 -28.334 -66 -41c22 -25.333 44.333 -50.333 67 -75s45.667 -49.334 69 -74.001c2.66699 -3.33398 5.16699 -6.16699 7.5 -8.49902l7.5 -7.5c5.33301 7.33301 10.333 14.833 15 22.5s9.66699 15.834 15 24.5
c5.33301 8 10.833 16.333 16.5 25s11.167 17 16.5 25l86 -46c-5.33301 -8 -10.333 -15.833 -15 -23.5s-9.66699 -15.5 -15 -23.5l1 1c-7.33301 -12.667 -15.333 -25.167 -24 -37.5s-19 -25.166 -31 -38.499c13.333 -14 26.333 -28.333 39 -43
c12.668 -14.667 25.335 -29 38.001 -43zM262.001 71.9961c21.333 -1.33301 43.333 5.00098 66 19.001s44.667 29.667 66 47c-4 4.66699 -8.16699 9.16699 -12.5 13.5s-8.5 8.83301 -12.5 13.5c-24 25.333 -48.167 51.333 -72.5 78s-48.166 53.334 -71.499 80.001
c-11.333 -7.33301 -22.333 -15 -33 -23s-20 -16.5 -28 -25.5s-14.167 -18.5 -18.5 -28.5c-4.33398 -10 -6.50098 -20.667 -6.5 -32c0 -19.333 2.5 -37.5 7.5 -54.5s12.5 -31.833 22.5 -44.5s22.667 -22.834 38 -30.501s33.666 -11.834 54.999 -12.501zM249.001 443.997
c0.671875 -1.33301 1.33594 -2.33203 1.99707 -2.99902c0.673828 -0.666992 1.34082 -1.66699 2.00098 -3c16 8.66699 30.667 17.834 44 27.501c13.334 9.66699 25.001 19.667 35.001 30s17.833 21.166 23.5 32.499s8.16699 23.333 7.5 36
c-2.66699 19.333 -9.66699 34.166 -21 44.499s-25.666 16.166 -42.999 17.499c-22 0.661133 -41.5 -5.17188 -58.5 -17.499c-17 -12.333 -26.5 -27.833 -28.5 -46.5c-2.66699 -23.334 0 -45.167 8 -65.5s17.667 -37.833 29 -52.5z" />
    <glyph glyph-name="quotesingle" unicode="'" horiz-adv-x="219" 
d="M158 749l-0.00195312 -38c0 -14 0.166992 -27.5 0.5 -40.5s0.333008 -26.5 0 -40.5c-0.335938 -14.0039 -1.16895 -29.1709 -2.5 -45.5c-1.33398 -16.333 -3.66699 -34.833 -6.99902 -55.5h-79c-3.33301 20.667 -5.66602 39.167 -6.99902 55.5
c-1.33398 16.333 -2.16699 31.5 -2.5 45.5s-0.333008 27.5 0 40.5s0.5 26.5 0.5 40.5v37z" />
    <glyph glyph-name="parenleft" unicode="(" horiz-adv-x="302" 
d="M297 712c-2.00098 -2 -4.33301 -3.99902 -6.99902 -5.99902c-2.66797 -2 -5.00098 -4 -7 -6c-23.333 -20 -41.833 -42.833 -55.5 -68.5s-24 -52.167 -31 -79.5c-7 -27.334 -11.5 -55.167 -13.5 -83.5s-3 -55.5 -3 -81.5v-92
c-0.00585938 -35.333 -0.172852 -68.833 -0.500977 -100.5c-0.332031 -31.667 1.83496 -62.5 6.50098 -92.5c4.66699 -30 13 -59.667 25 -89s30.333 -59.333 55 -90c3.33496 -4 7.16797 -8.33301 11.499 -13c4.33301 -4.66699 11.833 -11.667 22.5 -21l-70 -56l-10 10
c-34 34 -60.167 67.667 -78.5 101s-32 68 -41 104s-14.333 74.167 -16 114.5s-2.5 84.5 -2.5 132.5v92c0 28.667 1 57.167 3 85.5s6.5 56.666 13.5 84.999s16.833 56.333 29.5 84s30 55.167 52 82.5c5.33301 6.67188 12 13.8389 20 21.5c8 7.66699 17 15.167 27 22.5z" />
    <glyph glyph-name="parenright" unicode=")" horiz-adv-x="302" 
d="M3 -110c2 2 4.33203 4.00293 6.99902 6.00293s5 4 7 6c23.333 20 41.833 42.833 55.5 68.5s24 52.167 31 79.5s11.5 55.166 13.5 83.499s3 55.5 3 81.5v92c0 35.333 0.166992 68.833 0.5 100.5s-1.83398 62.5 -6.5 92.5c-4.66699 30 -13 59.667 -25 89
s-30.333 59.333 -55 90c-3.33301 4.00293 -7.16602 8.33594 -11.499 12.999c-4.33301 4.66699 -11.833 11.667 -22.5 21l70 56l10 -10c34 -34.001 60.167 -67.668 78.5 -101c18.333 -33.334 32 -68.001 41 -104.001s14.333 -74.167 16 -114.5
c1.66895 -40.333 2.50195 -84.5 2.5 -132.5v-92c0 -28.667 -1 -57.167 -3 -85.5s-6.5 -56.666 -13.5 -84.999s-16.833 -56.333 -29.5 -84s-30 -55.167 -52 -82.5c-5.33301 -6.66699 -12 -13.834 -20 -21.501s-17 -15.167 -27 -22.5z" />
    <glyph glyph-name="asterisk" unicode="*" horiz-adv-x="458" 
d="M274 684c0 -7.33594 0.331055 -15.1709 0.998047 -23.501c0.666992 -8.33301 1 -18 1 -29c0 -11.002 -0.666992 -23.6689 -2 -38.001c-1.33301 -14.335 -4 -31.168 -8 -50.499c16 9.33301 30.333 16.833 43 22.5s24.334 10.334 35.001 14
c10.667 3.66699 20.334 6.66699 29.001 9s17 4.83301 25 7.5l6 2l28 -84l-8 -3c-8.00098 -3.33301 -16.334 -6.83301 -25 -10.5c-8.66699 -3.66992 -18.5 -7.00293 -29.499 -9.99902c-11 -3.00195 -23.5 -5.83496 -37.5 -8.5c-14 -2.66699 -30.333 -4.66699 -48.999 -6
c10 -8 19 -15.667 27 -23s15.833 -15.166 23.5 -23.499s15.5 -17.666 23.5 -27.999s16.667 -22.5 26 -36.5l-73 -55c-16.667 17.334 -31.167 34.667 -43.5 52c-12.333 17.334 -24.833 34.667 -37.5 52c-6.66699 -12 -14.167 -23.5 -22.5 -34.5
c-8.33398 -11 -16.501 -21 -24.501 -30s-15.333 -17 -22 -24c-6.66699 -7.00098 -11.334 -11.834 -14.001 -14.5l-76 53c2.66699 4 7.66699 10.5 15 19.5s15.666 19 24.999 30s19.333 22 30 33s20.667 20.5 30 28.5c-18.667 1.33301 -34.667 3.33301 -48 6
s-25.166 5.83398 -35.499 9.50098s-19.666 7.33398 -27.999 11.001s-16.5 7.16699 -24.5 10.5l-8 3l28 84l6 -2c8 -2.66699 16.333 -5.33398 25 -8.00098s18.334 -5.83398 29.001 -9.50098s22.334 -8.33398 35.001 -14.001s27 -13.167 43 -22.5
c-4 19.333 -6.66699 36.166 -8.00098 50.499c-1.33301 14.333 -2 27 -2.00098 38c0 11 0.333008 20.833 1 29.5c0.671875 8.66699 1.00488 16.667 0.999023 24v8h90v-9z" />
    <glyph glyph-name="plus" unicode="+" 
d="M42 339h189v206h80v-206h189v-79h-189v-207h-80v207h-189v79z" />
    <glyph glyph-name="comma" unicode="," horiz-adv-x="224" 
d="M167 113c0.671875 -3.33301 1.00488 -7.5 1 -12.5v-17.5c0 -81.333 -23 -162 -69 -242l-72 23c27.333 56.667 41 124 41 202c0 6 -0.166992 13 -0.5 21s-0.833008 17 -1.5 27z" />
    <glyph glyph-name="hyphen" unicode="-" horiz-adv-x="277" 
d="M15 343h247v-87h-247v87z" />
    <glyph glyph-name="period" unicode="." horiz-adv-x="224" 
d="M155 0h-110v115h110v-115z" />
    <glyph glyph-name="slash" unicode="/" horiz-adv-x="362" 
d="M53 -163l-90 15l321 916l89 -10z" />
    <glyph glyph-name="zero" unicode="0" 
d="M37 345c0 56 5.66797 106.169 17.001 150.502s27.5 82 48.5 113s46.333 54.667 76 71s62.5 24.5 98.5 24.5c36 -0.00292969 68.667 -8.16992 98 -24.501c29.334 -16.333 54.501 -39.833 75.501 -70.5s37.333 -68.167 49 -112.5s17.5 -94.5 17.5 -150.5
s-5.66699 -106.167 -17 -150.5s-27.333 -81.833 -48 -112.5s-45.834 -54.167 -75.5 -70.5c-29.667 -16.333 -62.5 -24.5 -98.5 -24.5c-36.667 0 -69.667 8.16699 -99 24.5s-54.333 39.833 -75 70.5s-36.834 68.167 -48.501 112.5s-17.834 94.166 -18.501 149.499z
M417.001 345.002c0 94 -12.334 163.667 -37 209c-24.667 45.333 -59.334 68 -104.001 68c-44.667 -0.000976562 -79.334 -22.668 -104.001 -68c-24.667 -45.333 -37 -115 -37 -209s12.333 -163.667 37 -209s59.334 -68 104.001 -68s79.334 22.667 104.001 68s37 115 37 209z
" />
    <glyph glyph-name="one" unicode="1" horiz-adv-x="456" 
d="M211 -1l-0.000976562 593c-16.667 -11.333 -33.5 -21.333 -50.5 -30s-33.167 -15 -48.5 -19l-28 78c12.667 3.33301 26.334 8.33301 41.001 15c14.667 6.66895 28.167 13.502 40.5 20.5c12.333 7.00293 22.833 13.8359 31.5 20.5c8.66699 6.66699 13.334 11.667 14 15
h104v-693h-104z" />
    <glyph glyph-name="two" unicode="2" 
d="M31 620c25.333 30 53.832 50.666 85.499 61.999s67.5 17 107.5 17h37c74.667 -0.000976562 129 -16.668 163 -50c34 -33.333 51 -82.333 51 -147c0 -34 -5 -62.333 -15 -84.999c-10 -22.667 -23.167 -42 -39.5 -58s-35.166 -29.5 -56.499 -40.5
c-21.333 -11.001 -43.333 -21.834 -66 -32.5c-17.333 -8 -34.666 -16.667 -51.999 -26s-33 -21.5 -47 -36.5s-25.333 -33.667 -34 -56s-13 -50.5 -13 -84.5v-3h324v-82h-428v85c0 44.667 6.16699 82.167 18.5 112.5s28.333 55.666 48 75.999s41.667 37.333 66 51
s48.833 26.167 73.5 37.5c14.667 6.66699 29 13.834 43 21.501s26.5 16.667 37.5 27s19.833 23 26.5 38s10 33.5 10 55.5c0 38 -8.66699 66.667 -26 86s-45.333 29 -84 29h-37c-22.667 0 -43.334 -3.5 -62.001 -10.5s-35.667 -19.833 -51 -38.5z" />
    <glyph glyph-name="three" unicode="3" 
d="M48 615l26.9922 29.9951c12 14.001 23.833 24.834 35.5 32.5c11.667 7.67383 23.667 13.3408 36 17c12.333 3.68262 25.833 5.84961 40.5 6.5c14.667 0.677734 31 1.01074 49 1h68c23.333 0 46.5 -4 69.5 -12s43.5 -19 61.5 -33s32.5 -30.5 43.5 -49.5
c11.001 -19 16.168 -39.5 15.501 -61.5v-54c0 -23.333 -6 -45.666 -18 -66.999c-12.001 -21.333 -29.334 -40 -52 -56c26 -15.333 46.667 -35.166 62 -59.499c15.334 -24.333 23.001 -52.5 23 -84.5v-51c-0.000976562 -26 -5.33398 -49.5 -16 -70.5
c-10.667 -21 -25.5 -38.833 -44.499 -53.5c-19 -14.667 -41.167 -26 -66.5 -34s-52.666 -12 -81.999 -12h-57c-10 0 -21.333 0.666992 -34 2s-25.667 3.33301 -39 6s-26.333 6.16699 -39 10.5s-23.667 9.5 -33 15.5c-8 6.66699 -16.5 13.334 -25.5 20.001
s-17.167 13.334 -24.5 20.001l66 64l50 -40c8.66699 -7.33301 20.834 -11.833 36.501 -13.5s29.834 -2.5 42.5 -2.5h57c30 0 55 7.83301 75 23.5s30 37.167 30 64.5v51c-0.000976562 30.667 -12.334 54.5 -37 71.5c-24.667 17.001 -55 26.168 -91 27.501h-5h-69v82h69
c18 0 34.167 2.33301 48.501 7c14.333 4.66699 26.833 11 37.5 19c10.667 8.00098 18.667 17.168 24 27.501c5.33594 10.333 8.00293 20.833 8.00098 31.5v55c-0.000976562 10.668 -2.33398 20.501 -6.99902 29.499c-4.66699 9.00293 -11.167 16.8359 -19.5 23.5
c-8.33301 6.6748 -17.666 11.8418 -27.999 15.5c-10.333 3.6748 -20.833 5.50781 -31.5 5.5h-68c-18.667 0 -34 -1.33301 -46 -4s-24 -10.667 -36 -24l2 1c-4 -5.33301 -8.33301 -10.333 -13 -15s-9 -9.66699 -13 -15z" />
    <glyph glyph-name="four" unicode="4" 
d="M28 261c6.66699 16 14.5 31.666 23.5 46.999c9 15.334 19 31.167 30 47.5c11 16.334 22.833 33.667 35.5 52c12.667 18.334 26.667 38.501 42 60.501c60.667 90 121 165 181 225h89v-418h82v-76h-82v-199h-90v199h-310zM338 581.999
c-40.667 -44 -80.666 -95.335 -119.999 -154.001c-10 -15.333 -19.5 -29.166 -28.5 -41.499s-17.667 -24.5 -26 -36.5s-16.333 -24.167 -24 -36.5s-14.834 -25.5 -21.501 -39.5h220v308z" />
    <glyph glyph-name="five" unicode="5" 
d="M447 613l-239.004 -0.000976562c-1.33301 -17.335 -2.33301 -32.168 -3 -44.5c-0.666992 -12.333 -1.33398 -24.833 -2.00098 -37.5s-1.5 -26.334 -2.5 -41.001c-1.00098 -14.667 -2.16797 -33 -3.50098 -55c3.33301 0.666992 6.83301 1 10.5 1h10.5h21h43
c27.334 0 53.167 -6.16699 77.5 -18.5c24.334 -12.333 45.501 -28.166 63.501 -47.499s32.333 -40.833 43 -64.5s16 -47.167 16 -70.5v-63c-0.00292969 -22 -5.83594 -43.667 -17.5 -65c-11.668 -21.333 -26.835 -40.5 -45.501 -57.5c-18.667 -17 -39.667 -30.667 -63 -41
s-46.666 -15.5 -69.999 -15.5h-58c-25.333 0 -50.166 3.5 -74.499 10.5s-45.166 17.833 -62.499 32.5l-44 37l68 62l43 -35c9.33301 -7.33301 20.5 -13.333 33.5 -18s25.167 -7 36.5 -7h58c10.667 0 21.5 2.83301 32.5 8.5s20.833 13 29.5 22s15.834 19.333 21.501 31
s8.5 23.5 8.5 35.5v63c0 14 -2.5 28 -7.5 42c-5.00098 14 -11.834 26.667 -20.5 38.001c-8.66699 11.334 -18.834 20.667 -30.5 27.999c-11.667 7.33594 -24.167 11.0029 -37.5 11c-5.33301 0.00390625 -10.166 0.170898 -14.499 0.5
c-4.33301 0.338867 -8.83301 0.505859 -13.5 0.5c-19.333 0 -34.166 -1.66699 -44.499 -5s-17.833 -8.66602 -22.5 -15.999h-102l25 361h337v-82z" />
    <glyph glyph-name="six" unicode="6" 
d="M448 586c-22.667 7.33301 -43.498 12.3359 -62.498 15.0029c-19 2.68945 -36.5 4.02246 -52.5 3.99902c-30 -0.00195312 -55.167 -5.66895 -75.5 -17c-20.333 -11.333 -37 -26.333 -50 -45s-23 -39.667 -30 -63s-11.833 -47.333 -14.5 -72
c12.667 5.33594 26.167 9.50293 40.5 12.5c14.333 3 29.833 4.5 46.5 4.5h55c37.333 0 68.666 -6.16699 93.999 -18.5s45.833 -27.833 61.5 -46.5s27 -39.334 34 -62c7 -22.667 10.5 -44.334 10.5 -65.001v-52c0 -22 -5.66699 -44.167 -17 -66.5
s-26.166 -42.833 -44.499 -61.5s-39 -33.834 -62 -45.501s-45.833 -17.5 -68.499 -17.5h-50c-32 0 -61 5 -87 15s-48 26.333 -66 49s-32 52 -42 88s-15 80 -15 132c0.666992 27.334 1.66699 56.667 3 88c1.33301 31.334 4.66602 62.167 9.99902 92.5
c5.33301 30.334 13.666 59.501 24.999 87.501s27.166 52.833 47.499 74.499c20.333 21.667 46.333 38.834 78 51.5c31.667 12.6689 70.5 19.002 116.5 19c21.333 0 43.833 -1.83301 67.5 -5.5s49.5 -9.5 77.5 -17.5zM250.002 343.003
c-20.667 0 -39.168 -4.83496 -55.501 -14.502s-28.833 -18.5 -37.5 -26.499v-28c0 -74 9.66699 -126.167 29 -156.5s45 -45.5 77 -45.5h50c10.667 0 21.167 3.33301 31.5 10c10.334 6.66699 19.667 15.334 28 26.001c8.33594 10.667 15.1689 22.667 20.5 36
c5.33691 13.333 8.00391 26.333 8.00098 39v50c0 12 -1.5 24.333 -4.5 37c-3.00195 12.667 -8.33496 24.5 -16 35.5c-7.66699 11 -17.667 20 -30 27s-27.5 10.5 -45.5 10.5h-55z" />
    <glyph glyph-name="seven" unicode="7" 
d="M103 0c6.66699 28 15.999 59.332 27.999 93.999s25.667 70.834 41 108.501s32 76 50 115s36.333 76.5 55 112.5s37.167 69.667 55.5 101c18.334 31.333 36.167 58.333 53.5 81h-337v81h441v-77c-17.333 -23.334 -35.666 -50.667 -54.999 -82
s-38.666 -64.833 -57.999 -100.5s-38.333 -72.5 -57 -110.5s-35.667 -76 -51 -114c-15.334 -38 -29.001 -74.833 -41.001 -110.5s-21 -68.5 -27 -98.5h-98z" />
    <glyph glyph-name="eight" unicode="8" 
d="M491 508c0.000976562 -12 -1.83398 -25 -5.50195 -39c-3.66895 -14 -9.00195 -28 -16 -42c-7 -14 -15.667 -27.667 -26 -41s-22.166 -25.333 -35.499 -36c27.334 -13.333 50.001 -31.333 68.001 -54s26.667 -54 26 -94c0 -9.33398 -0.166992 -18.667 -0.5 -28
c-0.333008 -9.33398 -0.5 -18.667 -0.5 -28c0 -23.333 -6.5 -45 -19.5 -65s-29.167 -37.5 -48.5 -52.5s-40.5 -26.833 -63.5 -35.5s-44.5 -13 -64.5 -13h-36h-25c-4 0 -8 0.333008 -12 1c-23.333 0 -46 5.33301 -68 16s-42 24.5 -60 41.5s-32.667 35.833 -44 56.5
s-17.333 41.334 -18 62.001v48c0 31.333 8.83301 60.666 26.5 87.999c17.667 27.334 40.5 49.667 68.5 67c-23.333 14 -42.333 31.833 -57 53.5s-22 50.5 -22 86.5v36c0 22.668 5.5 44.335 16.5 65.001c11 20.668 25.333 39.001 43 55c17.667 16 38 28.667 61 38
s46.5 14 70.5 14h50c24 0 47.5 -5.33301 70.5 -16s43.5 -24.334 61.5 -41.001s32.5 -35.5 43.5 -56.5s16.5 -41.833 16.5 -62.5v-24zM249.998 312c-14 0.666992 -27.332 -1.83594 -39.999 -7.50293s-23.834 -13.5 -33.501 -23.499c-9.66699 -10 -17.334 -21.667 -23.001 -35
s-8.5 -27 -8.5 -41v-47c0.666992 -11.334 3.66699 -22.667 9 -34s12 -21.5 20 -30.5s17.167 -16.333 27.5 -22s20.5 -8.5 30.5 -8.5c4 -0.666992 8 -1 12 -1h26h37c9.33301 0.666992 19.333 3.33398 30 8.00098s20.5 10.834 29.5 18.501s16.5 16.5 22.5 26.5s9 21 9 33
c-0.000976562 8.66699 0.166016 17.5 0.5 26.5c0.339844 9 0.506836 18.167 0.500977 27.5c0.666992 34 -11.5 59.333 -36.5 76s-62.5 28 -112.5 34zM160.999 499.997c0 -35.333 11.832 -61.667 35.499 -79s55.5 -27.333 95.5 -30c16 -1.33301 30 2 42 10s22 18 30 30
s14 25 18 39s6 26.667 6 38.001v24c0 11.333 -2.66699 22.5 -8 33.5s-12.166 21 -20.499 30c-8.33301 9.00488 -17.833 16.3379 -28.5 22c-10.667 5.68066 -21.334 8.51367 -32 8.49902h-50c-11.333 0 -22.166 -2.5 -32.499 -7.5c-10.334 -5.00293 -19.667 -11.6699 -28 -20
c-8.33398 -8.33301 -15.001 -17.833 -20.001 -28.5s-7.5 -22 -7.5 -34v-36z" />
    <glyph glyph-name="nine" unicode="9" 
d="M97 101c22.667 -7.33301 43.4961 -12.3359 62.4961 -15.0029s36.5 -4 52.5 -4c30 0 55.167 5.66699 75.5 17c20.334 11.333 37.001 26.166 50.001 44.499s22.833 39.333 29.5 63s11.667 47.834 15 72.501c-12.667 -5.33301 -26.167 -9.5 -40.5 -12.5
s-29.833 -4.5 -46.5 -4.5h-55c-37.333 0.000976562 -68.666 6.16797 -93.999 18.5c-25.333 12.333 -45.833 27.833 -61.5 46.5s-27 39.334 -34 62.001s-10.5 44.334 -10.5 65.001v52c0 22 5.66699 44.167 17 66.5s26.166 42.833 44.499 61.5s39 33.834 62 45.5
c23 11.6709 45.833 17.5039 68.5 17.5h50c32 0 61 -5 87 -15s48 -26.333 66 -49s32 -52 42 -88s15 -80 15 -132c-0.666992 -27.333 -1.66699 -56.666 -3 -87.999s-4.66602 -62.166 -9.99902 -92.499s-13.666 -59.5 -24.999 -87.5s-27.166 -52.833 -47.499 -74.5
s-46.333 -38.834 -78 -51.501s-70.5 -19 -116.5 -19c-21.333 -0 -43.833 1.83301 -67.5 5.5s-49.5 9.5 -77.5 17.5zM294.996 343.997c20.667 0 39.168 4.83203 55.501 14.499s28.833 18.5 37.5 26.5v28c0 74 -9.66699 126.167 -29 156.5s-45 45.5 -77 45.5h-50
c-10.667 0 -21.167 -3.33301 -31.5 -10c-10.334 -6.66699 -19.667 -15.334 -28 -26.001c-8.33398 -10.667 -15.167 -22.667 -20.5 -36s-8 -26.333 -8 -39v-50c0 -12 1.5 -24.333 4.5 -36.999c3 -12.667 8.33301 -24.5 15.999 -35.499c7.66699 -11 17.667 -20 30 -27
s27.5 -10.5 45.5 -10.5h55z" />
    <glyph glyph-name="colon" unicode=":" horiz-adv-x="224" 
d="M171 1h-115v126h115v-126zM171 388h-115v126h115v-126z" />
    <glyph glyph-name="semicolon" unicode=";" horiz-adv-x="224" 
d="M167 113c0.671875 -3.33301 1.00488 -7.5 1 -12.5v-17.5c0 -81.333 -23 -162 -69 -242l-72 23c27.333 56.667 41 124 41 202c0 6 -0.166992 13 -0.5 21s-0.833008 17 -1.5 27zM169 382h-108v134h108v-134z" />
    <glyph glyph-name="less" unicode="&#x3c;" 
d="M145 299l355 -198l-38 -77l-420 235v80l420 236l38 -77z" />
    <glyph glyph-name="equal" unicode="=" 
d="M42 232h458v-79h-458v79zM42 445h458v-79h-458v79z" />
    <glyph glyph-name="greater" unicode="&#x3e;" 
d="M397 300l-355 198l38 77l420 -235v-80l-420 -236l-38 77z" />
    <glyph glyph-name="question" unicode="?" horiz-adv-x="382" 
d="M212 0h-118v124h118v-124zM10 666c21.333 15.333 44.668 26.9961 70.001 34.9961s50.666 12 75.999 12h34c24 0 46.5 -3.83301 67.5 -11.5s39.167 -18.167 54.5 -31.5c15.333 -13.335 27.333 -29.168 36 -47.5c8.66699 -18.334 13 -38.167 13 -59.499v-38
c-0.00390625 -14 -2.83691 -27.667 -8.5 -41c-5.66699 -13.333 -13 -26.166 -21.999 -38.499c-9 -12.333 -19.167 -24.333 -30.5 -36s-22.666 -23.167 -33.999 -34.5l-25 -25c-8.66699 -8.66699 -16.5 -17.5 -23.5 -26.499c-7 -9 -12.667 -18.333 -17 -27.999
c-4.33398 -9.66699 -6.50098 -18.834 -6.50098 -27.5l2 -74h-98c0 12.667 -0.5 25.5 -1.5 38.5s-1.16699 26.167 -0.5 39.5c0.666992 16 4 31.167 10 45.5c6 14.334 13.833 28.001 23.5 41.001s20.5 25.667 32.5 38c12 12.334 24 24.501 36 36.5
c16 15.334 30.833 30.667 44.499 46c13.667 15.333 20.5 30.666 20.5 45.999v38c0 19.333 -7 35.833 -21 49.5c-14 13.668 -31.333 20.501 -52 20.5h-34c-32 -0.000976562 -64.333 -13.668 -97 -41z" />
    <glyph glyph-name="at" unicode="@" horiz-adv-x="928" 
d="M656 385l4 -194.996v-3c0 -16.667 2.5 -30.834 7.5 -42.501c4.99902 -11.667 13.832 -17.5 26.5 -17.5h30c7.33301 0 14.333 4.33301 21 12.999c6.66797 8.66699 12.501 19.834 17.5 33.501c5 13.667 9 28.667 12 45s4.5 32.166 4.5 47.499v99
c-0.00585938 29.333 -6.67285 59.5 -20 90.5c-13.335 31 -31.502 59.333 -54.5 84.999c-23.001 25.667 -50.168 46.667 -81.501 63c-31.334 16.333 -65.001 24.5 -101 24.5h-108c-32 0 -63.667 -8 -95 -24s-59.666 -36.833 -84.999 -62.5s-45.833 -54.667 -61.5 -87
s-23.5 -64.833 -23.5 -97.5v-133c0 -38.667 8.16699 -76 24.5 -112s37.833 -67.833 64.5 -95.5s56.834 -49.834 90.501 -66.501s67.834 -25 102.501 -25h118c6 -0.00195312 11.667 0.165039 17 0.500977c5.33301 0.332031 11.666 1.16504 18.999 2.49902
c7.33301 1.33301 16.666 3.5 27.999 6.5s25.666 7.16699 42.999 12.5l28 -78c-20.667 -6 -37.834 -10.833 -51.501 -14.5s-25.334 -6.33398 -35.001 -8.00098s-18.167 -2.66699 -25.5 -3c-7.33594 -0.328125 -15.0029 -0.495117 -23 -0.5h-118
c-46.667 0 -92.667 10.667 -138 32s-85.666 49.666 -120.999 84.999s-64 75.833 -86 121.5s-33 93.167 -33 142.5v133c0 28 4.83301 56.333 14.5 85s23.167 56 40.5 82c17.333 26.001 37.5 50.334 60.5 73c23 22.667 48 42.334 75 59c27 16.668 55 29.835 84 39.501
s57.833 14.499 86.5 14.499h108c49.333 0 95.5 -10.833 138.5 -32.5s80.333 -49.167 111.999 -82.5c31.667 -33.333 56.667 -70.333 75 -111s27.5 -80.334 27.5 -119v-99c0 -24 -3.83301 -49.167 -11.5 -75.5s-18.334 -50.166 -32.001 -71.499s-29.667 -39 -48 -53
s-37.833 -21 -58.5 -21h-46c-20 0 -36.667 2.33301 -50 7c-13.3359 4.66699 -24.6689 11.334 -33.999 20.001c-16.667 -10.667 -33.667 -18.167 -51 -22.5c-17.334 -4.33301 -31.667 -6.5 -42.999 -6.5h-52c-24.667 0 -48.834 5.83301 -72.5 17.5
c-23.667 11.667 -44.667 27.167 -63 46.5s-33 41.833 -44 67.5s-16.5 52.5 -16.5 80.5v66c0.000976562 34 5.16797 63.333 15.5 88c10.333 24.667 24.333 45.167 42 61.5c17.667 16.334 38.334 28.501 62.001 36.5c23.667 8 48.834 12 75.501 12h68
c17.333 0 34.5 -2 51.5 -6s32.167 -11 45.5 -21s24 -23.667 32 -41s12 -39.333 12 -66h-1zM560 393.004l1.00195 0.000976562c-1.33887 17.334 -6.67188 29.001 -16 35c-9.33496 6 -19.002 9 -29 9h-68c-27.333 0 -50.666 -9.5 -69.999 -28.5s-29 -48.167 -29 -87.5v-66
c0 -17.333 2.83301 -33.833 8.5 -49.5s13.167 -29.5 22.5 -41.5c9.33398 -12 20.001 -21.5 32.001 -28.5s24.333 -10.5 37 -10.5h52c4 0 9.33301 1 16 3s13.167 5.33301 19.5 9.99902c6.33301 4.66699 12.166 10.667 17.499 18s8.66602 16.333 9.99902 27
c-0.666992 32.667 -1.33398 67.5 -2.00098 104.5s-1.33398 71.833 -2.00098 104.5v1z" />
    <glyph glyph-name="A" unicode="A" horiz-adv-x="641" 
d="M538 0c-8 20.667 -29 79.667 -63 177h-314l-63 -177h-101c110.667 306 203.667 537 279 693h89c74.667 -156 167.667 -387 279 -693h-106zM447 257c-27.333 72.667 -51.667 136 -73 190s-40 99 -56 135c-38.667 -82 -81.667 -190.333 -129 -325h258z" />
    <glyph glyph-name="B" unicode="B" horiz-adv-x="621" 
d="M262 -6c-77.333 0 -139.668 5.66699 -187.001 17v672c47.333 11.333 109.333 17 186 17c190.667 0 286 -60.667 286 -182c0 -72 -33 -121.333 -99 -148c88.667 -26 133 -81.667 133 -167c0 -70 -26 -122.333 -78 -157c-51.333 -34.667 -131.666 -52 -240.999 -52z
M170.998 323l0.000976562 -244c2 -0.666992 6.33301 -1 12.999 -1h13c11.333 -0.666992 23 -1.16699 35 -1.5s24.333 -0.5 37 -0.5c142 0 213 42.333 213 127c0 44 -16 75 -48 93s-78 27 -138 27h-125zM169.999 402h101.998c116 0 174 36.667 174 110
c0 37.333 -16.333 64.333 -48.999 81c-33.333 17.333 -76.666 26 -129.999 26c-21.333 0 -40 -0.333008 -56 -1s-29.333 -1.66699 -40 -3z" />
    <glyph glyph-name="C" unicode="C" horiz-adv-x="598" 
d="M526 576c-19.333 14 -40.668 25.6709 -64.001 35.0039s-44.666 14 -63.999 14h-59c-25.333 0 -49.666 -6.83301 -72.999 -20.5s-43.833 -31.334 -61.5 -53.001s-31.667 -45.667 -42 -72c-10.334 -26.333 -15.501 -51.833 -15.501 -76.5v-69
c0 -32 4.16699 -63.833 12.5 -95.5s20.666 -60.167 36.999 -85.5s36.666 -45.833 60.999 -61.5c24.334 -15.667 52.501 -23.5 84.501 -23.5h55c15.333 0 29 1 41 3s23 4.66699 33 8s19.5 7.5 28.5 12.5s18.5 10.5 28.5 16.5l48 -70c-13.333 -8 -25.833 -15.167 -37.5 -21.5
s-24.334 -11.666 -38.001 -15.999s-28.834 -7.83301 -45.5 -10.5c-16.667 -2.66699 -36 -4 -58 -4h-55c-47.333 0 -89.166 10.333 -125.499 31s-66.833 47.667 -91.5 81s-43.167 70.666 -55.5 111.999s-18.5 82.666 -18.5 123.999v69c0 34.667 7.83301 70 23.5 106
s36.834 68.667 63.501 98s57.334 53.333 92.001 72c34.667 18.6689 71 28.002 109 27.999h59c30.667 -0.00585938 62.667 -6.17285 96 -18.501c33.333 -12.333 62.666 -27.833 87.999 -46.5z" />
    <glyph glyph-name="D" unicode="D" horiz-adv-x="691" 
d="M644 347c-0.000976562 -116.667 -34.668 -204.666 -104 -263.999c-69.333 -59.333 -163 -89 -281 -89c-73.333 0 -134.666 5.66699 -183.999 17v672c49.333 11.333 110.666 17 183.999 17c118 -0.000976562 211.667 -29.668 281 -89.001
c69.333 -59.334 104 -147.334 104 -264zM267 81.001c90.667 0 159 23 205 69s69 112 69 198s-23 152 -69 198s-114.333 69 -205 69c-39.333 0 -71 -1 -95 -3v-530c24 -2 55.667 -3 95 -3v2z" />
    <glyph glyph-name="E" unicode="E" horiz-adv-x="549" 
d="M75 0v693h423v-83h-326v-206h290v-81h-290v-240h351v-83h-448z" />
    <glyph glyph-name="F" unicode="F" horiz-adv-x="515" 
d="M75 0v693h418v-83h-321v-209h285v-82h-285v-319h-97z" />
    <glyph glyph-name="G" unicode="G" horiz-adv-x="650" 
d="M174 483c-16 -39.333 -24.001 -84.6621 -24.001 -135.995c0 -84.667 20 -152 60 -202s98 -75 174 -75c48 0 86 4.33301 114 13v169h-38v89h136v-324c-62.667 -20.667 -136.667 -31 -222 -31c-98.667 0 -177.667 31.667 -237 95c-58.667 62.667 -88 151.334 -88 266.001
c0 64.667 10.333 120.667 31 168c1.33398 4 2.66699 7 4 9l2 4c2 4.00488 3.83301 7.83789 5.5 11.499c1.66699 3.67383 3.83398 7.50684 6.50098 11.5c1.33398 3.33301 3.00098 6.33301 5.00098 9s4 5.66699 6 9c5.33301 7.33301 10.833 14.5 16.5 21.5
s11.834 14.167 18.5 21.5c28 28.667 60.167 51.667 96.5 69s73.833 26 112.5 26h55c20.667 0 39.5 -2.16699 56.5 -6.5c17 -4.33789 32.333 -9.50488 46 -15.501c13.668 -6 25.835 -12.333 36.5 -19c10.667 -6.66699 19.667 -12.667 27 -18
c2 -1.33301 3.66699 -2.33301 5 -3s2.66602 -1.66699 3.99902 -3l-58 -68c-1.35449 1.33301 -3.1875 2.66602 -5.5 3.99902c-2.34082 1.33301 -4.50781 2.66602 -6.5 3.99902l1 -1c-6.00098 4 -12.834 8.5 -20.5 13.5c-7.66797 5 -16.001 9.66699 -25 14
c-9 4.33301 -18.667 8.16602 -29 11.499s-20.833 5 -31.5 5h-55c-17.333 -0.00488281 -34.833 -3.67188 -52.5 -11c-17.667 -7.33301 -34.5 -17.333 -50.5 -30s-30.667 -27.667 -44 -45c-13.333 -17.334 -24 -36.001 -32 -56.001z" />
    <glyph glyph-name="H" unicode="H" horiz-adv-x="683" 
d="M511 693h97v-693h-97v320h-339v-320h-97v693h97v-289h339v289z" />
    <glyph glyph-name="I" unicode="I" horiz-adv-x="247" 
d="M75 693h97v-693h-97v693z" />
    <glyph glyph-name="J" unicode="J" horiz-adv-x="478" 
d="M406 221c0 -158.667 -76.667 -238 -230 -238c-40 0 -76 6 -108 18s-56 25 -72 39l38 77c44.667 -32 90.667 -48 138 -48c48.667 0 84 12.333 106 37s33 66.667 33 126v384h-38v77h135z" />
    <glyph glyph-name="K" unicode="K" horiz-adv-x="607" 
d="M583 692c-42 -66.667 -92.833 -126.17 -152.499 -178.503c-59.667 -52.333 -124.5 -98.166 -194.5 -137.499c50 -20.667 95.333 -46.167 136 -76.5s76.5 -62.666 107.5 -96.999s57 -69.166 78 -104.499s37.5 -68.333 49.5 -99h-109c-12.668 27.333 -28.835 56 -48.501 86
c-19.667 30 -43 59 -70 87s-57.5 54 -91.5 78s-71.333 43.333 -112 58v-309h-104v693h104v-251c56 31.333 108.667 67.833 158 109.5s93 88.834 131 141.5h118z" />
    <glyph glyph-name="L" unicode="L" horiz-adv-x="497" 
d="M492 84v-84h-417v693h97v-609h320z" />
    <glyph glyph-name="M" unicode="M" horiz-adv-x="849" 
d="M384 96c-23.333 54.667 -58.333 133.668 -105 237.001c-47.333 102.667 -80.333 169.667 -99 201c-10.667 -114.667 -20.667 -292.334 -30 -533.001h-95c12.667 288.667 29.667 519.667 51 693h85c23.333 -38.667 54.5 -97.834 93.5 -177.501s85.5 -180.5 139.5 -302.5
c54 122 100.5 222.833 139.5 302.5s70.167 138.834 93.5 177.5h85c22.667 -223.333 39.667 -454.333 51 -693h-95c-9.33301 240.667 -19.333 418.334 -30 533.001c-19.333 -31.333 -52.333 -98.333 -99 -201c-47.334 -103.333 -82.334 -182.333 -105 -237h-80z" />
    <glyph glyph-name="N" unicode="N" horiz-adv-x="706" 
d="M549 1c-24.667 41.333 -52.499 85.8301 -83.499 133.497s-65.5 98.834 -103.5 153.501s-73 103.167 -105 145.5c-32 42.334 -61.333 78.501 -88 108.501v-541h-95v693h77c60 -64 128 -147 204 -249c75.333 -101.333 135.666 -189.666 180.999 -264.999v513h95v-693z" />
    <glyph glyph-name="O" unicode="O" horiz-adv-x="756" 
d="M46 368c0 53.333 8 101.004 24 143.004s38.667 77.667 68 107s64.5 51.833 105.5 67.5c41 15.6709 86.167 23.5039 135.5 23.499c52.667 0 99.5 -8.5 140.5 -25.5s75.5 -41.333 103.5 -73s49.167 -69.834 63.5 -114.501s21.5 -95 21.5 -151
c-0.0078125 -57.333 -7.6748 -108.333 -23 -153c-15.333 -44.667 -37.333 -82.334 -66 -113.001s-63.334 -54 -104.001 -70s-86.334 -24 -137 -24c-52.667 0 -98.834 7.5 -138.5 22.5c-39.667 15 -75.167 39.833 -106.5 74.5c-33.333 37.333 -56.166 79.166 -68.499 125.499
s-18.5 99.833 -18.5 160.5zM148 331.004c0 -82 19.834 -146.168 59.501 -192.501s96.167 -69.5 169.5 -69.5c76 0 132.833 24.333 170.5 73c37.666 48.667 56.499 116.334 56.499 203.001c0 92 -19 161.667 -57 209s-94.333 71 -168.999 71
c-8 0.000976562 -16 -0.166016 -24 -0.5c-8 -0.333008 -16 -0.833008 -24 -1.5c-32.667 -3.33691 -60.5 -13.1699 -83.5 -29.5c-23 -16.334 -41.833 -37.501 -56.5 -63.5c-14.667 -26 -25.334 -56.167 -32.001 -90.5s-10 -70.5 -10 -108.5z" />
    <glyph glyph-name="P" unicode="P" horiz-adv-x="586" 
d="M259 699c97.333 -0.000976562 172.335 -18.6689 225.002 -56.001c52 -37.333 78 -92.333 78 -165c0 -77.333 -26.667 -133.666 -80 -168.999c-52.667 -34.667 -130.334 -52 -233.001 -52h-77v-257h-97v683c49.333 11.333 110.666 17 183.999 17v-1zM266.002 613.999
c-41.333 0 -73 -1 -95 -3v-272h73c72 0 126 10 162 30s54 56.667 54 110c0 90 -64.333 135 -193 135h-1z" />
    <glyph glyph-name="Q" unicode="Q" horiz-adv-x="756" 
d="M46 368c0 53.333 7.99805 101.001 23.998 143.001s38.667 77.667 68 107s64.5 51.833 105.5 67.5c41 15.6709 86.167 23.5039 135.5 23.499c52.667 0 99.5 -8.5 140.5 -25.5s75.5 -41.333 103.5 -73s49.167 -69.834 63.5 -114.501s21.5 -95 21.5 -151
c0 -103.333 -23.833 -185.5 -71.5 -246.5s-113.5 -97.167 -197.5 -108.5c10.667 -27.333 23.667 -46.666 39 -57.999l-1 1c5.33301 -3.33301 10.833 -7.16602 16.5 -11.499s11.167 -8.16602 16.5 -11.499l-50 -62l-34 23c-22 15.333 -39.5 32.666 -52.5 51.999
s-22.833 40.333 -29.499 63c-44 3.33301 -83.167 12.333 -117.5 27s-65.5 37.667 -93.5 69c-33.333 37.333 -56.166 79.166 -68.499 125.499s-18.5 99.833 -18.5 160.5zM147.998 331.001c0 -72.667 15.666 -131.667 46.999 -177s76.333 -72.666 135 -81.999v29v17h92v-41v-5
c61.334 9.33301 107.001 37.666 137.001 84.999s45 110 45 188c0 92 -19 161.667 -57 209s-94.333 71 -168.999 71c-8 0.000976562 -16 -0.166016 -24 -0.5c-8 -0.333008 -16 -0.833008 -24 -1.5c-32.667 -3.33691 -60.5 -13.1699 -83.5 -29.5
c-23 -16.334 -41.833 -37.501 -56.5 -63.5c-14.667 -26 -25.334 -56.167 -32.001 -90.5s-10 -70.5 -10 -108.5z" />
    <glyph glyph-name="R" unicode="R" horiz-adv-x="607" 
d="M413 289c14.667 -18 30.168 -38.168 46.501 -60.501s33.833 -47.5 52.5 -75.5c36.667 -55.333 65.667 -106.333 87 -153h-106c-51.333 98 -111.333 188.667 -180 272c-5.33301 -0.662109 -12.5 -0.995117 -21.5 -0.999023h-32.5h-87v-271h-97v683
c49.333 11.333 110.666 17 183.999 17c98 0 172.333 -18.333 223 -55c50.668 -36.667 76.001 -91 76 -163c0 -95.333 -48 -159.333 -144 -192zM266.001 612.999c-41.333 0 -73 -1 -95 -3v-261h69c72.667 0 126.667 9 162 27c35.334 18 53.001 53 53 105
c0 88.667 -63 133 -189 133v-1z" />
    <glyph glyph-name="S" unicode="S" horiz-adv-x="510" 
d="M68 119c25.333 -18.667 52.667 -31.8291 82 -39.4961s55.666 -11.167 78.999 -10.5l38 1c14 0 27.833 2 41.5 6s26 10 37 18s20 18.333 27 31s10.5 28 10.5 46c-0.000976562 22 -3.33398 40.333 -9.99902 55c-6.66699 14.667 -17 27.167 -31 37.5
c-14 10.334 -31.5 19.501 -52.5 27.501s-45.5 16.333 -73.5 25c-60 18 -105.167 41.167 -135.5 69.5s-45.5 68.166 -45.5 119.499v22c0 5.33301 0.333008 10.666 1 15.999c0.666992 27.333 8 51.333 22 72c14 20.668 32 37.835 54 51.5c22 13.6689 46.833 24.002 74.5 31
c27.667 7 55.5 10.5 83.5 10.5h30c32 -1.33301 63 -6.83301 93 -16.5s53.667 -19.167 71 -28.5c-7.33301 -13.333 -14.333 -26.333 -21 -39s-13.667 -25.334 -21 -38.001c-21.333 12.668 -45.833 22.335 -73.5 29c-27.667 6.67578 -53.834 10.0088 -78.5 10
c-47.333 0 -81.333 -9.83301 -102 -29.5s-31 -42.834 -31 -69.501c0 -16 1.83301 -30.667 5.49902 -44c3.66699 -13.333 10.334 -25.5 20 -36.5c9.66699 -11.001 23.167 -20.834 40.5 -29.5c17.333 -8.66699 40 -16 68 -22c43.333 -12.001 79 -25.334 107 -40
c28 -14.667 50 -31 66 -49s27 -38 33 -60s9 -46 9 -72c0 -33.333 -6.66699 -61.5 -20 -84.5s-30.666 -41.833 -51.999 -56.5s-45.166 -25.5 -71.499 -32.5s-52.5 -11.167 -78.5 -12.5h-60c-27.333 0.666992 -51 3.33398 -71 8.00098s-37.333 10 -52 16
s-26.834 11.833 -36.501 17.5s-17.5 10.167 -23.5 13.5c8 13.333 15.833 26.166 23.5 38.499s15.5 25.166 23.5 38.499z" />
    <glyph glyph-name="T" unicode="T" horiz-adv-x="543" 
d="M538 693v-84h-218v-609h-97v609h-218v84h533z" />
    <glyph glyph-name="U" unicode="U" horiz-adv-x="666" 
d="M332 -15c-87.333 0 -153.002 25 -197.002 75s-66 116 -66 198v435h97v-424c0 -66.667 14.667 -116.334 44 -149.001c28.667 -32 69.334 -48 122.001 -48c52 0 92.667 16 122 48c29.334 32.667 44.001 82.334 44.001 149.001v424h97v-435c0 -82 -22 -148 -66 -198
s-109.333 -75 -196 -75h-1z" />
    <glyph glyph-name="V" unicode="V" horiz-adv-x="634" 
d="M634 694c-46 -133.333 -91.5 -257.335 -136.5 -372.001c-45 -114.667 -90.167 -221.667 -135.5 -321h-91c-105.333 230.667 -196.333 461.667 -273 693h107c88.667 -263.333 159.667 -456.333 213 -579c52.667 120.667 123.667 313.334 213 578.001z" />
    <glyph glyph-name="W" unicode="W" horiz-adv-x="907" 
d="M452 470c-38 -121.333 -95 -278.332 -171 -470.999h-97c-63.333 182 -119.333 413 -168 693h102c45.333 -252.667 87.333 -443.334 126 -572.001c38.667 101.333 72 192.666 100 273.999c28 81.334 51 153.334 69 216h84c31.333 -108.667 88.333 -272 171 -490
c34 118.667 75 309.667 123 573h99c-49.333 -275.333 -105.333 -506.333 -168 -693h-97c-64.667 156.667 -121.667 313.334 -171 470.001h-2z" />
    <glyph glyph-name="X" unicode="X" horiz-adv-x="609" 
d="M491 0c-37.333 77.333 -99.333 176 -186 296c-83.333 -117.333 -145.333 -216.333 -186 -297h-107c44 86 121 208 231 366l-222 327h112l171 -258l169 258h111l-218 -323c108 -153.333 186 -276.333 234 -369h-109z" />
    <glyph glyph-name="Y" unicode="Y" horiz-adv-x="576" 
d="M104 693c29.333 -82.667 57.332 -150.335 83.999 -203.002s54 -91.667 82 -117c21.334 20.667 46.167 57.334 74.5 110.001c28.334 52.667 58.501 122.667 90.501 210h108c-38 -108 -75.5 -194.667 -112.5 -260s-73.5 -110.666 -109.5 -135.999v-298h-104v299
c-36 25.333 -72.333 70.5 -109 135.5s-74 151.5 -112 259.5h108z" />
    <glyph glyph-name="Z" unicode="Z" horiz-adv-x="551" 
d="M515 615c-26.667 -30 -56.168 -65.5 -88.501 -106.5s-67.833 -88.167 -106.5 -141.5c-77.333 -106.667 -139 -201.334 -185 -284.001h390v-83h-503v65c40.667 78.667 99.334 173.334 176.001 284.001c76 110 142 197 198 261h-356v83h475v-78z" />
    <glyph glyph-name="bracketleft" unicode="[" horiz-adv-x="307" 
d="M85 783h225v-73h-138v-822h138v-73h-225v968z" />
    <glyph glyph-name="backslash" unicode="\" horiz-adv-x="362" 
d="M-39 753l85 21l322 -918l-88 -21z" />
    <glyph glyph-name="bracketright" unicode="]" horiz-adv-x="307" 
d="M222 -185h-225v73h138v822h-138v73h225v-968z" />
    <glyph glyph-name="asciicircum" unicode="^" 
d="M269 693l157 -340l-74 -38l-124 282l-122 -282l-74 38l155 340h82z" />
    <glyph glyph-name="underscore" unicode="_" horiz-adv-x="470" 
d="M-15 -106h500v-79h-500v79z" />
    <glyph glyph-name="grave" unicode="`" horiz-adv-x="354" 
d="M110 776l128 -154l-47 -42l-141 137z" />
    <glyph glyph-name="a" unicode="a" horiz-adv-x="500" 
d="M237 533c132.667 0 198.999 -66.333 198.999 -199v-284c-21.333 -15.333 -41.5 -27 -60.5 -35s-37 -14 -54 -18s-32.833 -6.33301 -47.5 -7s-28.334 -1 -41 -1c-134.667 0 -202 55.333 -202 166c0 55.333 20.667 96 62 122c40.667 26 93.334 39 158.001 39
c36 -0.000976562 68 -4.33398 96 -13v26c0 80.667 -37.333 122 -112 124h-5c-22 0 -41.333 -2.66699 -58 -8s-32.667 -15 -48 -29l-68 60c25.333 22.667 52 38 80 46s61.667 11.667 101 11zM244.999 67c23.333 0 43.332 2.16797 59.999 6.50098s30.334 10.166 41.001 17.499
v138c-15.333 8 -44.333 12 -87 12c-88.667 0 -133 -28.333 -133 -85c0 -59.333 39.667 -89 119 -89z" />
    <glyph glyph-name="b" unicode="b" horiz-adv-x="567" 
d="M163 497c36.667 23.333 80.335 35.002 131.002 35.002c72.667 0 129.667 -25 171 -75c41.334 -50.667 62.001 -116.334 62 -197.001c-0.000976562 -84 -23.334 -150.333 -70 -199c-46.667 -48.667 -110 -73 -190 -73c-16.667 0 -33.334 0.5 -50.001 1.5
s-33.334 3.66699 -50.001 8s-33.167 11.166 -49.5 20.499s-32.5 22 -48.5 38v704l93 16zM162.001 99.002c14 -8 29.5 -14.6689 46.5 -20.002s35.833 -8 56.5 -8c50.667 0 91 16.667 121 50c30 32.667 45 79.334 45 140.001c0 58 -12 104 -36 138s-61.667 51 -113 51
c-48 0 -87.667 -13.333 -119 -39.999z" />
    <glyph glyph-name="c" unicode="c" horiz-adv-x="443" 
d="M265 -11c-66.667 6 -119.001 30.332 -157.001 72.999c-44 48.667 -66 114.334 -66 197.001c0 80.667 22.667 146.667 68 198c43.333 49.334 100.666 75.001 171.999 77c34 1.33301 64 -2.83398 90 -12.501c26 -9.66797 50.667 -24.835 74 -45.501l-68 -63
c-14.667 12.667 -29.667 22.5 -45 29.5s-31.666 9.83301 -48.999 8.5c-44 -2 -79 -18 -105 -48c-28 -33.333 -42 -81.333 -42 -144c0 -113.333 46.333 -175.666 139 -186.999c18.667 -1.33301 36.5 1.33398 53.5 8.00098s33.167 16.667 48.5 30l68 -64
c-21.333 -19.333 -43.5 -33.5 -66.5 -42.5s-49.167 -14.167 -78.5 -15.5h-4h-16c-5.33301 0 -10.666 0.333008 -15.999 1z" />
    <glyph glyph-name="d" unicode="d" horiz-adv-x="567" 
d="M404 409c-31.333 26.667 -71 40.001 -119 40.001c-51.333 0 -89 -17 -113 -51s-36 -80 -36 -138c0 -60.667 15 -107.334 45 -140.001c30 -33.333 70.333 -50 121 -50c20.667 0 39.5 2.66699 56.5 8s32.5 12 46.5 20zM405 759.001l92.999 15.998v-720
c-16.001 -16 -32.334 -28.667 -49 -38c-16.667 -9.33301 -33.167 -16.166 -49.5 -20.499s-32.833 -7 -49.5 -8s-33.334 -1.5 -50 -1.5c-80 0 -143.333 24.333 -190 73s-70 115 -70 199c0 80.667 20.667 146.334 62 197.001c40.667 50 97.667 75 171 75
c50.667 -0.000976562 94.334 -11.668 131.001 -35z" />
    <glyph glyph-name="e" unicode="e" horiz-adv-x="537" 
d="M40 259c1.33301 86.667 24.665 153.666 69.998 200.999c46 48 101.667 72 167 72c144.667 0 217 -88.333 217 -265v-19.5c-0.0146484 -5.66699 -0.347656 -10.167 -0.999023 -13.5h-356c2 -34.667 7.16699 -61.334 15.5 -80.001s18.833 -34.667 31.5 -48
c5.33301 -6 11 -11.167 17 -15.5s12.667 -8.16602 20 -11.499s16.166 -5.83301 26.499 -7.5s22.5 -2.5 36.5 -2.5c26 0 48.167 3 66.5 9c18.334 6 33.167 16.667 44.5 32l67 -61c-18 -18.667 -41 -33.167 -69 -43.5s-62.667 -15.833 -104 -16.5
c-41.333 -2 -78.166 3.83301 -110.499 17.5s-59.166 32.167 -80.499 55.5c-22 24.667 -37.167 53.334 -45.5 86.001s-12.5 69.667 -12.5 111zM397.999 306.999c0.666992 42.667 -9.99902 77.667 -31.999 105c-22 26.667 -51.667 40 -89 40
c-40.667 0 -72.334 -14 -95.001 -42c-23.333 -28 -37.333 -62 -42 -102z" />
    <glyph glyph-name="f" unicode="f" horiz-adv-x="364" 
d="M272 776c48 0 85.332 -5.66602 111.999 -16.999l-17 -80c-24 11.333 -53.333 17 -87.999 17c-78 0 -117 -43.667 -117 -131.001v-45h191l-17 -78h-174v-442h-93v567c0 139.333 67.667 209 203 209z" />
    <glyph glyph-name="g" unicode="g" horiz-adv-x="556" 
d="M397 49c-11.333 -7.33301 -28.334 -14.334 -51.001 -21.001c-24 -7.33301 -49 -11 -75 -11c-66.667 0 -121.667 21.667 -165 65c-42.667 42.667 -64 105.334 -64 188.001c0 76.667 22.667 139.334 68 188.001c44.667 48 105.667 72 183 72
c14.667 -0.0166016 29.667 -0.683594 45 -2.00098c15.334 -1.33301 31.167 -4.83301 47.5 -10.5c16.334 -5.66797 33.001 -14.501 50.001 -26.5c17 -12 34.5 -29 52.5 -51v-401c-0.000976562 -79.333 -20.334 -137 -61 -173c-41.333 -36 -104.333 -54 -189 -54
c-30.667 -0.00195312 -60 0.831055 -88 2.49902c-28 1.66699 -54.667 9.83398 -80 24.501l39 70c11.333 -4.66699 22 -8.16699 32 -10.5s20 -4 30 -5s20.5 -1.5 31.5 -1.5h37.5c55.333 0 95 11 119 33c12 11.333 21 26.333 27 45c6.00098 18.667 9.66797 45 11 79z
M394.999 410.999c-14 14.667 -29.5 23.832 -46.5 27.499s-35.167 5.5 -54.5 5.5c-49.333 0 -87.333 -16 -114 -48c-27.333 -32.667 -41 -76 -41 -130c0 -55.333 13.667 -97.666 41 -126.999c26.667 -28.667 59.667 -43 99 -43c48.667 0 87.667 11.667 117 35z" />
    <glyph glyph-name="h" unicode="h" horiz-adv-x="549" 
d="M70 1v760l93 6v-256c38 14 76 21 114 21c78 0 133 -20.667 165 -62s48 -100.333 48 -177v-292h-93v272c0 66 -9.33301 111.667 -28 137c-19.333 26 -53.333 39 -102 39c-42 0 -77 -5.66699 -105 -17v-432z" />
    <glyph glyph-name="i" unicode="i" horiz-adv-x="231" 
d="M154 0h-93v520h93v-520zM60 625v100h95v-100h-95z" />
    <glyph glyph-name="j" unicode="j" horiz-adv-x="231" 
d="M-16 -187c-23.333 0 -44.333 3.66699 -63 11l12 76c14 -4.66699 29.667 -7 47 -7c31.333 0 54 9.66699 68 29c14 18.667 21 47.667 21 87v511h93v-510c0 -131.333 -59.333 -197 -178 -197zM69 625v100h93v-100h-93z" />
    <glyph glyph-name="k" unicode="k" horiz-adv-x="500" 
d="M454 521c-13.333 -23.333 -28.668 -46.334 -46.001 -69.001s-35.833 -44.167 -55.5 -64.5s-40.5 -39.333 -62.5 -57s-44.333 -32.834 -67 -45.5c68.667 -25.333 125.167 -62.666 169.5 -111.999c44.334 -49.333 80.167 -107.333 107.5 -174h-98
c-25.333 56 -57.666 104.167 -96.999 144.5s-87 70.5 -143 90.5v-235h-93v760l93 16v-442c36.667 20 71.5 46.667 104.5 80s62.167 69.333 87.5 108h100z" />
    <glyph glyph-name="l" unicode="l" horiz-adv-x="251" 
d="M223 -10c-56.667 0.666992 -96.999 12.666 -120.999 35.999c-24 22.667 -36 59.334 -36 110.001v624l93 16v-625c0 -30 5.33301 -50.333 15.999 -61c10.667 -10.667 31.667 -18 63 -22z" />
    <glyph glyph-name="m" unicode="m" horiz-adv-x="839" 
d="M69 503c69.333 17.333 137.999 25.9961 205.999 25.9961c62.667 0 109.667 -17.667 141 -53c8.66699 6.66699 19.667 13.667 33 21c12 6.66699 31.333 14 58 22c26.001 8 51.334 12 76 12c75.333 -0.000976562 126.333 -20.334 153 -61
c27.333 -41.333 41 -100.666 41 -177.999v-292h-93v272c0.000976562 64 -7.66602 109.667 -23 137c-15.333 27.334 -44.333 41.001 -87 41.001c-52.667 0 -92.667 -11.667 -120 -35c10.667 -32.667 16 -73.334 16 -122v-292h-93v272c0 62.667 -8 107.667 -24 135
c-16 27.334 -45.333 41.001 -88 41.001c-41.333 -0.00292969 -75.666 -3.33594 -102.999 -9.99902v-439h-93v503z" />
    <glyph glyph-name="n" unicode="n" horiz-adv-x="552" 
d="M69 506c69.333 17.333 138.332 26 206.999 26c78 0 133 -20.667 165 -62s48 -100.333 48 -177v-292h-93v272c0 66 -9.33301 111.667 -28 137c-19.333 26 -53.333 39 -102 39c-19.334 0 -37.667 -0.833008 -55 -2.5s-33.666 -4.16699 -48.999 -7.5v-439h-93v506z" />
    <glyph glyph-name="o" unicode="o" horiz-adv-x="568" 
d="M530 271c0 -36.667 -3.00195 -72.0029 -9.00195 -106.003s-18 -64.167 -36 -90.5s-43 -47.333 -75 -63s-74 -23.5 -126 -23.5c-46 0 -83.667 6 -113 18s-53.666 29 -72.999 51c-22.667 19.333 -38 45 -46 77s-12 73.667 -12 125c0 42.667 4 80.834 12 114.501
s21.5 62.167 40.5 85.5s44.167 41.333 75.5 54c31.333 12.6699 70 19.0029 116 19c44.667 -0.00585938 82.667 -7.67285 114 -23c31.333 -15.333 56.833 -35.166 76.5 -59.499s33.834 -52.166 42.501 -83.499c8.67383 -31.333 13.0068 -63 13 -95zM430.998 269.997
c0 27.334 -2.50195 52.165 -7.50195 74.498c-5 22.334 -13.167 41.501 -24.5 57.501s-26.166 28.333 -44.499 37s-41.166 13 -68.499 13c-34 0 -60.833 -6.16699 -80.5 -18.5s-34.5 -28 -44.5 -47s-16.167 -39.833 -18.5 -62.499
c-2.33496 -22.667 -3.50195 -44.667 -3.5 -66c0 -34 2.5 -63 7.5 -87s13.167 -43.833 24.5 -59.5s26.5 -27.167 45.5 -34.5s42.167 -11 69.5 -11c52.667 0 90 15 112 45s33 75 33 135v24z" />
    <glyph glyph-name="p" unicode="p" horiz-adv-x="567" 
d="M430 259c0 60 -15 106.666 -45 139.999c-30 33.334 -70.333 50.001 -121 50.001c-21.333 0 -40.5 -2.5 -57.5 -7.5s-31.833 -11.5 -44.5 -19.5v-311c31.333 -26.667 71 -40 119 -40c51.333 0 89 17 113 51s36 79.667 36 137zM527 258.999
c-2.00098 -81.333 -23.334 -146.667 -64 -196c-41.333 -50 -98.333 -75 -171 -75c-50.667 0 -94.334 11.667 -131.001 35v-208h-93v648c18 16 35.667 28.667 53 38s34.166 16.166 50.499 20.499s32.333 7 48 8s30.834 1.5 45.501 1.5
c80.667 -0.000976562 144.334 -24.334 191.001 -73c47.334 -49.333 71.001 -115.666 71 -198.999z" />
    <glyph glyph-name="q" unicode="q" horiz-adv-x="567" 
d="M139 257c0 -57.333 12 -103.002 36 -137.002s61.667 -51 113 -51c48 0 87.667 13.333 119 40v311c-12.667 8 -27.5 14.5 -44.5 19.5s-36.167 7.5 -57.5 7.5c-50.667 0 -91 -16.333 -121 -48.999c-30 -33.333 -45 -79.666 -45 -138.999v-2zM40 256.998
c0 83.334 23.6641 149.667 70.9971 199c46.667 48.667 110.334 73 191.001 73c14.667 0 29.834 -0.5 45.501 -1.5c15.667 -1.00391 31.667 -3.6709 48 -8c16.334 -4.33594 33.167 -11.1689 50.5 -20.499c17.334 -9.33301 35.001 -22 53.001 -38v-648h-93v208
c-36.667 -23.333 -80.334 -35 -131 -35c-73.333 0 -130.333 25 -171 75c-40.667 49.333 -62 114.666 -64 195.999z" />
    <glyph glyph-name="r" unicode="r" horiz-adv-x="364" 
d="M261 531c37.333 0 72 -5.00098 104 -15.001l-16 -81c-30 10 -64 15 -102 15c-26 -0.00292969 -54.333 -4.33594 -85 -12.999v-437h-93v498c60.667 22 124.667 33 192 33z" />
    <glyph glyph-name="s" unicode="s" horiz-adv-x="424" 
d="M212 67c34 0 60.666 5.16504 79.999 15.498c19.334 10.333 29.001 26.166 29 47.499v8c0 12.667 -3 23.334 -9 32.001s-13.667 15.834 -23 21.5c-9.33301 5.66699 -20.166 10.5 -32.499 14.5s-24.5 8 -36.5 12c-24 8 -46.833 16 -68.5 24s-40.834 17 -57.501 27
s-30.167 21.667 -40.5 35c-10.333 13.334 -16.5 29.667 -18.5 49v27.5v14.5v7.5v6.5c0.666992 16.667 6.66699 32.667 18 48c11.333 15.334 25.833 28.501 43.5 39.5c17.667 11.002 37.5 19.835 59.5 26.499c22 6.66992 44.667 10.0029 68 10c28 0 54.833 -3 80.5 -9
s48.167 -14 67.5 -24c-7.33301 -12 -14.333 -24 -21 -36c-6.66699 -12.001 -13.667 -24.334 -21 -37c-11.333 9.33496 -26.333 16.502 -45 21.501c-18.667 5 -39 7.5 -61 7.5c-12.667 0 -25.167 -1.66699 -37.5 -5s-23.333 -8 -33 -14s-17.5 -13 -23.5 -21s-9 -17 -9 -27v-6
c0 -13.333 2 -24 6 -32s10.333 -14.667 19 -20s19.834 -10.333 33.5 -15c13.667 -4.66602 30.167 -9.99902 49.5 -15.999c26 -8 49.5 -16 70.5 -24s39.167 -17 54.5 -27c15.334 -10 27.501 -21.5 36.501 -34.5s14.5 -28.833 16.5 -47.5v-27
c-0.000976562 -45.333 -14.834 -81.666 -44.5 -108.999c-29.667 -27.333 -75.5 -41 -137.5 -41c-22 0 -43.333 1.16699 -64 3.5s-39.667 5.66602 -57 9.99902s-32.5 10 -45.5 17s-22.833 15.167 -29.5 24.5c10 10.667 19.833 20.834 29.5 30.501s19.5 19.834 29.5 30.501
c11.333 -12.667 29 -22.334 53 -29.001s47.667 -10 71 -10z" />
    <glyph glyph-name="t" unicode="t" horiz-adv-x="380" 
d="M155 521h197.002v-78h-197v-240c0 -12.667 0.5 -23.334 1.5 -32.001s2.5 -16.167 4.5 -22.5s4.33301 -12 6.99902 -17c2.66699 -5 6 -9.83301 10 -14.5c7.33301 -9.33301 17.166 -19.166 29.499 -29.499s27.166 -15.5 44.499 -15.5c28 0 62.333 7.66699 103 23l18 -77
c-38 -18.667 -81 -28 -129 -28c-34 0 -62.667 7 -86 21s-41.666 29.667 -54.999 47c-13.333 16.667 -23.333 35.5 -30 56.5s-10 49.833 -10 86.5v464l93 16z" />
    <glyph glyph-name="u" unicode="u" horiz-adv-x="552" 
d="M483 55c-17.333 -16 -34.502 -28.5 -51.502 -37.5s-34 -15.667 -51 -20s-34.167 -7 -51.5 -8s-34.666 -1.5 -51.999 -1.5c-142.667 0 -214 79.667 -214 239v292h93v-272c0 -64 10 -109.333 30 -136s53.667 -40 101 -40c25.334 0 46.501 2.5 63.501 7.5
s29.833 11.5 38.5 19.5v422h93z" />
    <glyph glyph-name="v" unicode="v" horiz-adv-x="480" 
d="M474 520c-43.333 -160.667 -107.668 -334 -193.001 -520h-84c-85.333 186 -149.666 359.333 -192.999 520h100c34.667 -143.333 80.667 -280.333 138 -411c56.667 130.667 102.667 267.667 138 411h94z" />
    <glyph glyph-name="w" unicode="w" horiz-adv-x="755" 
d="M495 0c-49.333 126 -88.332 244.999 -116.999 356.999c-31.333 -118 -70.333 -237 -117 -357h-81c-32 71.333 -62.333 150 -91 236s-56 180.667 -82 284h100c17.333 -78.667 35.666 -151.834 54.999 -219.501s40.333 -130.167 63 -187.5
c44.667 124.667 83.667 260.334 117 407.001h77c13.334 -66 29.501 -132.667 48.501 -200s41.167 -136.333 66.5 -207c22.667 57.333 43.667 119.833 63 187.5s37.666 140.834 54.999 219.501h96c-26 -103.333 -53.333 -198 -82 -284s-59 -164.667 -91 -236h-80z" />
    <glyph glyph-name="x" unicode="x" horiz-adv-x="489" 
d="M380 1c-26.667 54 -73.333 125 -140 213c-56.667 -74 -103 -145.333 -139 -214h-96c36.667 72 96.667 163 180 273l-172 247h105l124 -182l125 182h99l-168 -241c46 -62 84.167 -116 114.5 -162s53.5 -85 69.5 -117z" />
    <glyph glyph-name="y" unicode="y" horiz-adv-x="451" 
d="M443 521c-6 -22 -11.5 -44.835 -16.5 -68.501c-5 -23.667 -10.167 -49.167 -15.5 -76.5c-8.66797 -42 -17.835 -85.333 -27.501 -130c-9.66797 -44.667 -21.001 -88 -34 -130c-13 -42 -27.833 -81.5 -44.5 -118.5s-36.5 -69.333 -59.5 -97s-49.5 -49.667 -79.5 -66
s-64.333 -24.5 -103 -24.5c-7.33301 0 -13.666 0.166992 -18.999 0.5s-10.666 0.833008 -15.999 1.5l10 82c5.33301 -0.666992 10.166 -1.16699 14.499 -1.5s7.83301 -0.5 10.5 -0.5c32 0 59.833 10.833 83.5 32.5s44.834 50.5 63.501 86.5
c-29.333 14.667 -53.833 33.5 -73.5 56.5s-36.834 54 -51.501 93s-28 87.5 -40 145.5s-24.333 129.667 -37 215h95c10.667 -69.333 20.667 -128.166 30 -176.499s19.333 -88.666 30 -120.999s22.667 -58.333 36 -78s29 -35.167 47 -46.5
c15.333 45.333 28.833 93.5 40.5 144.5s22.5 100.5 32.5 148.5c4.66699 22 9.16699 44.167 13.5 66.5c4.33496 22.334 9.16797 43.167 14.5 62.499h96z" />
    <glyph glyph-name="z" unicode="z" horiz-adv-x="449" 
d="M414 449c-35.333 -38.667 -81.667 -95.002 -139 -169.002c-56.667 -73.333 -103 -140.666 -139 -201.999h286v-78h-397v62c28.667 52.667 70.334 116.334 125.001 191.001c27.333 37.334 53.166 71.667 77.499 103c24.334 31.333 47.167 60 68.5 86h-257v78h375v-71z" />
    <glyph glyph-name="braceleft" unicode="{" horiz-adv-x="311" 
d="M29 334c29.333 0 52 9.66699 68 29c16 18.667 24 41.667 24 69v180c0 57.333 14 100 42 128s76.667 42 146 42h4v-73c-38.667 0 -66 -7 -82 -21s-24 -40 -24 -78v-154c0 -77.333 -22.333 -130 -67 -158c44.667 -28 67 -80.667 67 -158v-154c0 -38 8 -64 24 -78
s43.333 -21 82 -21v-73h-4c-69.333 0 -118 14 -146 42s-42 71 -42 129v180c0 26.667 -8 49.667 -24 69s-38.667 29 -68 29v71z" />
    <glyph glyph-name="bar" unicode="|" horiz-adv-x="257" 
d="M85 783h87v-968h-87v968z" />
    <glyph glyph-name="braceright" unicode="}" horiz-adv-x="311" 
d="M282 262c-29.333 0 -52 -9.33203 -68 -27.999c-16 -19.333 -24 -42.333 -24 -69v-180c0 -58 -14 -101 -42 -129s-76.667 -42 -146 -42h-4v73c38.667 0 66 7 82 21s24 40 24 78v154c0 77.333 22.333 130 67 158c-44.667 28 -67 80.667 -67 158v154c0 38 -8 64 -24 78
s-43.333 21 -82 21v73h4c69.333 0 118 -14 146 -42c28 -28.001 42 -70.668 42 -128.001v-180c0 -27.333 8 -50.333 24 -69s38.667 -28 68 -28v-73z" />
    <glyph glyph-name="asciitilde" unicode="~" 
d="M509 357c-2.66992 -13.333 -6.83496 -28.001 -12.499 -44.001c-5.66895 -16 -13.8359 -31.167 -24.501 -45.5c-10.667 -14.333 -24.167 -26.333 -40.5 -36s-36.166 -14.5 -59.499 -14.5c-20 0 -38.5 4 -55.5 12s-33.167 16.667 -48.5 26
c-18 10.667 -35.333 21.167 -52 31.5c-16.667 10.334 -34.334 15.501 -53.001 15.501c-10.667 0 -19.667 -2.5 -27 -7.5c-7.33301 -5.00098 -13.666 -11.334 -18.999 -19c-5.33301 -7.66699 -9.66602 -16 -12.999 -25s-6.33301 -17.833 -9 -26.5l-64 18
c2.66699 12.667 7 27.167 13 43.5c6 16.334 14.167 31.667 24.5 46s23.666 26.333 39.999 36s36.166 14.5 59.499 14.5c20 0 38.5 -4 55.5 -12s33.167 -16.667 48.5 -26c18 -10.667 35.333 -21.167 52 -31.5s34.334 -15.5 53.001 -15.5c10.667 0 19.667 2.5 27 7.5
c7.33496 5 13.668 11.333 19 19c5.33594 7.66699 9.66895 16 12.999 25c3.33301 9 6.33301 17.833 9 26.5z" />
    <glyph glyph-name="cent" unicode="&#xa2;" 
d="M75 291c1.33301 32 6.33105 62.001 14.998 90.001s21.667 53.667 39 77c35.333 47.334 82.333 77.001 141 89v144h83v-139c18.667 -1.33301 36.834 -3.83301 54.501 -7.5s35.5 -8.83398 53.5 -15.501l-21 -77c-14 5.33691 -28.167 9.66992 -42.5 13
c-14.333 3.33984 -29.166 5.67285 -44.499 7v-364c35.334 0.666992 69.667 7.66699 103 21l13 -76c-11.333 -6.66699 -26.5 -12 -45.5 -16s-42.5 -6.66699 -70.5 -8v-139h-83v144c-31.334 6 -59.167 16.167 -83.5 30.5s-44.833 33.166 -61.5 56.499
c-33.333 46.667 -50 103.334 -50 170.001zM171.998 289.001c0 -92 32.668 -149 98.001 -171v345c-22.667 -8.66797 -41.334 -21.001 -56.001 -37c-28 -31.333 -42 -77 -42 -137z" />
    <glyph glyph-name="section" unicode="&#xa7;" horiz-adv-x="470" 
d="M352 563c1.34668 4.00195 2.0127 7.33984 1.99902 10.0039c0 6.66992 -2.66699 12.8369 -8 18.5c-5.33301 5.66699 -12.166 10.667 -20.499 15s-18.166 7.83301 -29.499 10.5c-11.333 2.69141 -23 4.02441 -35 4c-25.333 0 -45 -5.83301 -59 -17.5s-21 -27.167 -21 -46.5
c0 -15.3359 6.16699 -30.1689 18.5 -44.5c12.333 -14.333 29.833 -24.166 52.5 -29.499c26 -5.33301 52.833 -10 80.5 -14s52.834 -12 75.501 -24s41.334 -30 56.001 -54s22 -58 22 -102c0 -30 -7.16699 -58.167 -21.5 -84.5s-35.5 -47.166 -63.5 -62.499
c26.667 -28.667 40 -60.334 40 -95.001c-0.00195312 -18 -3.83496 -35.667 -11.5 -53c-7.66699 -17.333 -19.167 -33 -34.5 -47s-34.5 -25.167 -57.5 -33.5s-49.833 -12.5 -80.5 -12.5c-26 0 -50.833 3.66699 -74.5 11s-44.334 17.166 -62.001 29.499
s-31.834 26.666 -42.501 42.999s-16 33.833 -16 52.5c0 6 0.5 12.167 1.5 18.5s3.16699 12.833 6.5 19.5l96 -34c-1.33398 -2 -2.00098 -5.33301 -2.00098 -10c0 -6.66699 2.66699 -12.834 8 -18.501s12.166 -10.667 20.499 -15s18.166 -7.83301 29.499 -10.5s23 -4 35 -4
c26 0 45.833 6 59.5 18s20.5 27.333 20.5 46c0 15.333 -5.5 30 -16.5 44s-28.167 23.667 -51.5 29c-26.667 4.66699 -54 9.16699 -82 13.5s-53.5 12.5 -76.5 24.5s-41.833 30 -56.5 54s-22 58.333 -22 103c0 30 7 58 21 84s35 46.667 63 62
c-13.333 14 -23.166 29.167 -29.499 45.5s-9.5 33.166 -9.5 50.499c0 18 3.83301 35.667 11.5 53s19.167 33 34.5 47s34.5 25.167 57.5 33.5s49.833 12.5 80.5 12.5c26 -0.00488281 50.667 -3.67188 74 -11c23.334 -7.33496 44.001 -17.168 62.001 -29.5
c18 -12.335 32.333 -26.668 43 -43c10.667 -16.333 16 -33.833 16 -52.5c0 -6.00391 -0.5 -12.1709 -1.5 -18.501c-1 -6.33301 -3.16699 -12.833 -6.5 -19.5zM277.999 202.005c3.33594 -0.666992 7.66895 -1 13 -1h13c25.334 0 44.667 8.83301 58 26.5
c13.334 17.667 20.001 38.167 20 61.5c0 29.334 -6 51.667 -18 67c-12 15.334 -26.5 26.501 -43.5 33.501s-35.333 11 -54.999 12c-19.667 1 -36.834 1.83301 -51.501 2.5c-25.333 0 -44.666 -9 -57.999 -27s-20 -38.667 -20 -62s3.83301 -41.833 11.499 -55.5
c7.66699 -13.667 18 -24.334 31 -32.001s28 -13.167 45 -16.5s35.167 -6.33301 54.5 -9z" />
    <glyph glyph-name="macron" unicode="&#xaf;" horiz-adv-x="354" 
d="M35 711h284v-72h-284v72z" />
    <glyph glyph-name="degree" unicode="&#xb0;" horiz-adv-x="310" 
d="M295 637c0 -42 -13.668 -75.667 -41.001 -101s-60.333 -38 -99 -38s-71.667 12.667 -99 38s-41 59 -41 101s13.667 75.667 41 101s60.333 38 99 38c38.667 -0.00292969 71.667 -12.6699 99 -38c27.334 -25.334 41.001 -59.001 41.001 -101zM227.999 637
c0 22.668 -7 41.001 -21 55c-14 14 -31.333 21 -52 21s-38 -7 -52 -21s-21 -32.333 -21 -55s7 -41 21 -55s31.333 -21 52 -21s38 7 52 21c14 14.001 21 32.334 21 55z" />
    <glyph glyph-name="plusminus" unicode="&#xb1;" 
d="M42 419h189v201h80v-201h189v-79h-189v-201h-80v201h-189v79zM42 79h458v-79h-458v79z" />
    <glyph glyph-name="acute" unicode="&#xb4;" horiz-adv-x="354" 
d="M304 717l-141 -137l-47 42l128 154z" />
    <glyph glyph-name="paragraph" unicode="&#xb6;" horiz-adv-x="624" 
d="M375 622c-4.66797 -0.0244141 -9.50098 -0.19043 -14.5 -0.499023c-5 -0.333008 -10.167 -0.833008 -15.5 -1.5v-806h-87v447c-78.667 8 -136 30 -172 66s-54 86.333 -54 151c0 72 28.667 127 86 165c56.667 38 135.667 57 237 57
c70 -0.00292969 129.667 -5.66992 179 -17.001v-868h-87v803c-10.667 1.33301 -21.167 2.5 -31.5 3.5s-23.833 1.5 -40.5 1.5v-1z" />
    <glyph glyph-name="divide" unicode="&#xf7;" 
d="M216 51v111h110v-111h-110zM42 339h458v-79h-458v79zM216 437v111h110v-111h-110z" />
    <glyph glyph-name="tilde" unicode="&#x2dc;" horiz-adv-x="354" 
d="M341 712c-25.333 -60 -59.999 -89.9961 -103.999 -89.9961c-20 0.000976562 -43.667 7.33398 -71 22c-11.333 5.33301 -21 9 -29 11s-15.667 3 -23 3c-9.33301 0 -17.5 -3.33301 -24.5 -10s-14.167 -17.334 -21.5 -32.001l-56 24
c3.33301 10.6689 7.83301 21.002 13.5 30.999c5.66699 10 13.167 19.667 22.5 29c9.33301 10.0049 19.666 17.3379 30.999 22c11.333 4.6875 23.333 7.02051 36 7c20 0 43.667 -7.33301 71 -22c11.333 -5.3418 21 -9.00879 29 -11.001c8 -2 15.667 -3 23 -3
c9.33301 0.00488281 17.5 3.33789 24.5 9.99902c7 6.66797 14.167 17.335 21.5 32z" />
    <glyph glyph-name="endash" unicode="&#x2013;" horiz-adv-x="474" 
d="M-13 339h500v-79h-500v79z" />
    <glyph glyph-name="emdash" unicode="&#x2014;" horiz-adv-x="974" 
d="M-13 339h1000v-79h-1000v79z" />
    <glyph glyph-name="quoteleft" unicode="&#x2018;" horiz-adv-x="213" 
d="M49 520v24.502c0 7.00293 0.333008 12.8359 1 17.499c4.66699 64 27.667 130 69 198l72 -23c-28 -59.334 -42 -117.001 -42 -173.001c0 -4.66699 0.166992 -10.667 0.5 -18c0.333008 -7.33398 0.833008 -16.001 1.5 -26h-102z" />
    <glyph glyph-name="quoteright" unicode="&#x2019;" horiz-adv-x="213" 
d="M164 750v-24.5c0 -7 -0.333008 -12.833 -1 -17.5c-5.33301 -63.333 -28.333 -129.333 -69 -198l-72 23c28 60 42 117.667 42 173c0 4.66699 -0.166992 10.667 -0.5 18s-0.833008 16 -1.5 26h102z" />
    <glyph glyph-name="quotedblleft" unicode="&#x201c;" horiz-adv-x="395" 
d="M49 520v24.502c0 7.00293 0.333008 12.8359 1 17.499c4.66699 64 27.667 130 69 198l72 -23c-28 -59.334 -42 -117.001 -42 -173.001c0 -4.66699 0.166992 -10.667 0.5 -18c0.333008 -7.33398 0.833008 -16.001 1.5 -26h-102zM231 520.002v24.502
c-0.00195312 7.00293 0.331055 12.8359 0.999023 17.499c4.66699 64 27.667 130 69 198l72 -23c-28 -59.334 -42 -117.001 -42 -173.001c-0.00292969 -4.66699 0.164062 -10.667 0.500977 -18c0.333008 -7.33398 0.833008 -16.001 1.5 -26h-102z" />
    <glyph glyph-name="quotedblright" unicode="&#x201d;" horiz-adv-x="395" 
d="M164 750v-24.5c0 -7 -0.333008 -12.833 -1 -17.5c-5.33301 -63.333 -28.333 -129.333 -69 -198l-72 23c28 60 42 117.667 42 173c0 4.66699 -0.166992 10.667 -0.5 18s-0.833008 16 -1.5 26h102zM346 750l0.000976562 -24.5c-0.0107422 -7 -0.34375 -12.833 -1 -17.5
c-5.33301 -63.333 -28.333 -129.333 -69 -198l-72 23c28 60 42 117.667 42 173c-0.0078125 4.66699 -0.174805 10.667 -0.500977 18c-0.333008 7.33301 -0.833008 16 -1.5 26h102z" />
    <glyph glyph-name="bullet" unicode="&#x2022;" horiz-adv-x="338" 
d="M291 230h-248v246h248v-246z" />
    <glyph glyph-name=".null" horiz-adv-x="0" 
 />
    </font>
</defs>
</svg>
